<svg width="600" height="360" viewBox="0 0 600 360" fill="none" xmlns="http://www.w3.org/2000/svg"><rect width="600" height="360" rx="24" fill="#F7FCFB"/><circle cx="172" cy="118" r="42" fill="#F3C9BD"/><circle cx="300" cy="98" r="46" fill="#F3C9BD"/><circle cx="430" cy="118" r="42" fill="#F3C9BD"/><path d="M120 264C132 198 212 198 224 264" fill="#12324A"/><path d="M238 264C252 184 348 184 362 264" fill="#8DDBC7"/><path d="M376 264C388 198 468 198 480 264" fill="#12324A"/><path d="M252 108H348" stroke="#12324A" stroke-width="8" stroke-linecap="round"/><path d="M142 146C158 158 185 158 202 146" stroke="#12324A" stroke-width="6" stroke-linecap="round"/><path d="M272 128C290 144 314 144 332 128" stroke="#12324A" stroke-width="6" stroke-linecap="round"/><path d="M400 146C416 158 443 158 460 146" stroke="#12324A" stroke-width="6" stroke-linecap="round"/><path d="M86 298H514" stroke="#F3A38E" stroke-width="8" stroke-linecap="round"/></svg>