<svg width="960" height="720" viewBox="0 0 960 720" fill="none" xmlns="http://www.w3.org/2000/svg"><rect width="960" height="720" rx="42" fill="#F7FCFB"/><circle cx="765" cy="128" r="112" fill="#8DDBC7" opacity=".34"/><circle cx="178" cy="596" r="146" fill="#F3A38E" opacity=".22"/><rect x="114" y="250" width="732" height="292" rx="46" fill="white" stroke="#DBE7ED" stroke-width="4"/><rect x="174" y="430" width="612" height="44" rx="22" fill="#E9F8F4"/><rect x="218" y="474" width="524" height="36" rx="18" fill="#E9F8F4"/><circle cx="486" cy="302" r="75" fill="#F3C9BD"/><path d="M407 307C412 246 449 205 492 208C538 211 566 249 570 307" stroke="#12324A" stroke-width="19" stroke-linecap="round"/><rect x="354" y="300" width="62" height="94" rx="29" fill="#12324A"/><rect x="556" y="300" width="62" height="94" rx="29" fill="#12324A"/><path d="M439 336C462 356 508 358 533 336" stroke="#12324A" stroke-width="8" stroke-linecap="round"/><path d="M379 510C414 431 559 431 592 510" fill="#12324A"/><rect x="135" y="170" width="145" height="92" rx="20" fill="#E9F8F4" stroke="#8DDBC7" stroke-width="4"/><path d="M165 226H250M165 199H225" stroke="#12324A" stroke-width="8" stroke-linecap="round"/><path d="M705 298C705 270 726 248 754 248C782 248 803 270 803 298C803 338 754 370 754 370C754 370 705 338 705 298Z" fill="#F3A38E"/><path d="M690 448C690 448 720 423 750 448C780 473 810 448 810 448" stroke="#12324A" stroke-width="8" stroke-linecap="round"/><path d="M315 186C315 186 350 158 386 186C422 214 458 186 458 186" stroke="#8DDBC7" stroke-width="10" stroke-linecap="round"/><path d="M590 154C620 132 660 132 692 154" stroke="#F3A38E" stroke-width="10" stroke-linecap="round"/><text x="480" y="630" text-anchor="middle" font-family="Arial" font-size="30" font-weight="700" fill="#12324A">Cuidado perioperatorio humanizado</text></svg>