<svg width="600" height="360" viewBox="0 0 600 360" fill="none" xmlns="http://www.w3.org/2000/svg"><rect width="600" height="360" rx="24" fill="#F7FCFB"/><circle cx="472" cy="72" r="58" fill="#8DDBC7" opacity=".45"/><rect x="70" y="190" width="460" height="70" rx="35" fill="white" stroke="#DBE7ED" stroke-width="4"/><circle cx="302" cy="136" r="52" fill="#F3C9BD"/><path d="M247 140C250 98 276 72 307 74C338 76 358 101 361 140" stroke="#12324A" stroke-width="15" stroke-linecap="round"/><rect x="210" y="135" width="46" height="68" rx="22" fill="#12324A"/><rect x="350" y="135" width="46" height="68" rx="22" fill="#12324A"/><path d="M272 160C290 175 319 176 337 160" stroke="#12324A" stroke-width="6" stroke-linecap="round"/><path d="M220 250C244 200 360 200 384 250" fill="#12324A"/><path d="M88 112C112 94 142 94 166 112" stroke="#8DDBC7" stroke-width="8" stroke-linecap="round"/><path d="M433 247C455 232 485 232 509 247" stroke="#F3A38E" stroke-width="8" stroke-linecap="round"/></svg>